<svg width="251" height="42" viewBox="0 0 251 42" fill="none" xmlns="http://www.w3.org/2000/svg">
<g clip-path="url(#clip0_259_1377)">
<mask id="mask0_259_1377" style="mask-type:alpha" maskUnits="userSpaceOnUse" x="0" y="0" width="58" height="42">
<rect width="58" height="42" rx="21" fill="#D9D9D9"/>
</mask>
<g mask="url(#mask0_259_1377)">
<g filter="url(#filter0_f_259_1377)">
<ellipse cx="18.4696" cy="20.5799" rx="44.37" ry="28.14" fill="#F7BCFA"/>
</g>
<g filter="url(#filter1_f_259_1377)">
<ellipse cx="33.2598" cy="10.0801" rx="28.42" ry="18.48" fill="#FFFC97"/>
</g>
<g filter="url(#filter2_f_259_1377)">
<ellipse cx="48.6292" cy="32.55" rx="19.43" ry="14.07" fill="#C9F5BF"/>
</g>
</g>
<path d="M16 23.7803H19.9013C20.018 24.5492 20.9909 25.0556 22.1 25.0556C23.3355 25.0556 24.0944 24.5774 24.0944 23.921C24.0944 23.2927 23.5788 23.0208 22.0708 22.7582L20.2126 22.4394C17.6344 22.008 16.2335 20.5827 16.2335 18.4635C16.2335 15.7254 18.6657 14 22.0124 14C25.7483 14 27.84 15.6504 27.8594 18.276H24.0944C24.0652 17.432 23.1993 16.935 22.0902 16.935C21.0103 16.935 20.3293 17.3664 20.3293 18.0415C20.3293 18.6885 20.9033 19.0261 22.2362 19.2512L24.1625 19.57C26.8866 20.0295 28.161 21.2766 28.161 23.4709C28.161 26.2371 25.758 28 22.0221 28C18.2571 28 16.0097 26.4809 16 23.7803Z" fill="#130F2A"/>
<path d="M35.4622 28C31.1621 28 28.4964 25.4588 28.4964 20.9953C28.4964 16.5318 31.1718 14 35.4622 14C39.1689 14 41.9708 16.3255 41.9805 19.6825H38.0306C37.9333 18.1447 36.8924 17.1226 35.4622 17.1226C33.7694 17.1226 32.6992 18.5666 32.6992 20.9859C32.6992 23.4334 33.7597 24.8774 35.472 24.8774C36.8924 24.8774 37.9236 23.8741 38.0501 22.3081H42C41.9805 25.6839 39.2467 28 35.4622 28Z" fill="#130F2A"/>
</g>
<path d="M71.1562 24.7422H74.0859C74.2734 26.3008 75.832 27.3203 77.8945 27.3203C79.9336 27.3203 81.3516 26.3125 81.3516 24.9062C81.3516 23.6875 80.4844 22.9844 78.3516 22.4805L76.1602 21.9648C73.043 21.25 71.5664 19.75 71.5664 17.3359C71.5664 14.3359 74.1797 12.3086 77.8594 12.3086C81.5859 12.3086 84.0469 14.3242 84.1172 17.3008H81.2344C81.0938 15.7188 79.7695 14.7695 77.8359 14.7695C75.9258 14.7695 74.6367 15.707 74.6367 17.1133C74.6367 18.2383 75.4922 18.8945 77.5664 19.3867L79.5117 19.832C82.9453 20.6172 84.3984 22.0352 84.3984 24.5547C84.3984 27.7656 81.8203 29.7812 77.7305 29.7812C73.8398 29.7812 71.2852 27.8594 71.1562 24.7422ZM90.9258 27.4961C92.5781 27.4961 93.9023 26.3945 93.9023 24.8945V23.9453L91.0312 24.1211C89.625 24.2148 88.8164 24.8477 88.8164 25.832C88.8164 26.8516 89.6602 27.4961 90.9258 27.4961ZM90.0469 29.6992C87.6445 29.6992 85.8984 28.1875 85.8984 25.9492C85.8984 23.7461 87.5977 22.4219 90.6211 22.2344L93.9023 22.0469V21.1562C93.9023 19.8555 93.0234 19.1055 91.582 19.1055C90.1992 19.1055 89.3203 19.7734 89.1328 20.8047H86.4258C86.5547 18.4844 88.5352 16.8203 91.6992 16.8203C94.7812 16.8203 96.7852 18.4492 96.7852 20.9453V29.5H93.9727V27.5195H93.9141C93.1992 28.8672 91.6406 29.6992 90.0469 29.6992ZM99.2227 29.5V12.5898H102.141V29.5H99.2227ZM109.16 27.4961C110.812 27.4961 112.137 26.3945 112.137 24.8945V23.9453L109.266 24.1211C107.859 24.2148 107.051 24.8477 107.051 25.832C107.051 26.8516 107.895 27.4961 109.16 27.4961ZM108.281 29.6992C105.879 29.6992 104.133 28.1875 104.133 25.9492C104.133 23.7461 105.832 22.4219 108.855 22.2344L112.137 22.0469V21.1562C112.137 19.8555 111.258 19.1055 109.816 19.1055C108.434 19.1055 107.555 19.7734 107.367 20.8047H104.66C104.789 18.4844 106.77 16.8203 109.934 16.8203C113.016 16.8203 115.02 18.4492 115.02 20.9453V29.5H112.207V27.5195H112.148C111.434 28.8672 109.875 29.6992 108.281 29.6992ZM117.375 29.5V17.0781H120.176V19.2461H120.234C120.656 17.7344 121.746 16.8672 123.211 16.8672C123.586 16.8672 123.914 16.9375 124.125 16.9844V19.6211C123.879 19.5273 123.434 19.457 122.941 19.457C121.289 19.457 120.293 20.5234 120.293 22.2695V29.5H117.375ZM127.008 34.1172C126.844 34.1172 126.012 34.1055 125.859 34.0703V31.7617C126.012 31.7969 126.527 31.8086 126.703 31.8086C127.91 31.8086 128.531 31.3516 128.859 30.2031C128.859 30.168 129.035 29.5469 129.023 29.5117L124.605 17.0781H127.793L130.723 27.0156H130.77L133.699 17.0781H136.77L132.281 29.9922C131.215 33.0742 129.844 34.1172 127.008 34.1172ZM150.551 29.7812C145.723 29.7812 142.688 26.4648 142.688 21.0391C142.688 15.6484 145.746 12.3086 150.551 12.3086C154.477 12.3086 157.465 14.7578 157.84 18.3906H154.863C154.465 16.2695 152.742 14.875 150.551 14.875C147.645 14.875 145.781 17.2656 145.781 21.0391C145.781 24.8359 147.633 27.2148 150.562 27.2148C152.801 27.2148 154.406 26.0078 154.875 23.9688H157.84C157.312 27.5898 154.547 29.7812 150.551 29.7812ZM164.332 27.4961C165.984 27.4961 167.309 26.3945 167.309 24.8945V23.9453L164.438 24.1211C163.031 24.2148 162.223 24.8477 162.223 25.832C162.223 26.8516 163.066 27.4961 164.332 27.4961ZM163.453 29.6992C161.051 29.6992 159.305 28.1875 159.305 25.9492C159.305 23.7461 161.004 22.4219 164.027 22.2344L167.309 22.0469V21.1562C167.309 19.8555 166.43 19.1055 164.988 19.1055C163.605 19.1055 162.727 19.7734 162.539 20.8047H159.832C159.961 18.4844 161.941 16.8203 165.105 16.8203C168.188 16.8203 170.191 18.4492 170.191 20.9453V29.5H167.379V27.5195H167.32C166.605 28.8672 165.047 29.6992 163.453 29.6992ZM172.629 29.5V12.5898H175.547V29.5H172.629ZM188.977 21.5078H186.223C185.988 20.1836 185.062 19.1875 183.504 19.1875C181.664 19.1875 180.48 20.7344 180.48 23.2891C180.48 25.8906 181.676 27.3906 183.527 27.3906C185.004 27.3906 185.965 26.5469 186.234 25.1406H188.988C188.754 27.918 186.609 29.7461 183.492 29.7461C179.859 29.7461 177.516 27.3203 177.516 23.2891C177.516 19.3164 179.859 16.8203 183.469 16.8203C186.75 16.8203 188.777 18.8945 188.977 21.5078ZM201.75 17.0781V29.5H198.938V27.3438H198.879C198.223 28.8555 196.969 29.7227 195.082 29.7227C192.387 29.7227 190.676 27.9766 190.676 25.1055V17.0781H193.594V24.5195C193.594 26.3008 194.461 27.2617 196.102 27.2617C197.789 27.2617 198.832 26.0664 198.832 24.2617V17.0781H201.75ZM204.223 29.5V12.5898H207.141V29.5H204.223ZM214.16 27.4961C215.812 27.4961 217.137 26.3945 217.137 24.8945V23.9453L214.266 24.1211C212.859 24.2148 212.051 24.8477 212.051 25.832C212.051 26.8516 212.895 27.4961 214.16 27.4961ZM213.281 29.6992C210.879 29.6992 209.133 28.1875 209.133 25.9492C209.133 23.7461 210.832 22.4219 213.855 22.2344L217.137 22.0469V21.1562C217.137 19.8555 216.258 19.1055 214.816 19.1055C213.434 19.1055 212.555 19.7734 212.367 20.8047H209.66C209.789 18.4844 211.77 16.8203 214.934 16.8203C218.016 16.8203 220.02 18.4492 220.02 20.9453V29.5H217.207V27.5195H217.148C216.434 28.8672 214.875 29.6992 213.281 29.6992ZM223.184 14.1719H226.102V17.0781H228.445V19.3281H226.102V25.7852C226.102 26.8047 226.57 27.2734 227.602 27.2734C227.871 27.2734 228.246 27.25 228.434 27.2148V29.4414C228.117 29.5117 227.543 29.5586 226.922 29.5586C224.238 29.5586 223.184 28.6094 223.184 26.1953V19.3281H221.402V17.0781H223.184V14.1719ZM235.699 29.7461C232.055 29.7461 229.688 27.3203 229.688 23.2891C229.688 19.2812 232.078 16.8203 235.699 16.8203C239.32 16.8203 241.711 19.2695 241.711 23.2891C241.711 27.3203 239.344 29.7461 235.699 29.7461ZM235.699 27.4375C237.551 27.4375 238.746 25.9375 238.746 23.2891C238.746 20.6523 237.551 19.1406 235.699 19.1406C233.859 19.1406 232.652 20.6523 232.652 23.2891C232.652 25.9375 233.848 27.4375 235.699 27.4375ZM243.586 29.5V17.0781H246.387V19.2461H246.445C246.867 17.7344 247.957 16.8672 249.422 16.8672C249.797 16.8672 250.125 16.9375 250.336 16.9844V19.6211C250.09 19.5273 249.645 19.457 249.152 19.457C247.5 19.457 246.504 20.5234 246.504 22.2695V29.5H243.586Z" fill="#130F2A"/>
<defs>
<filter id="filter0_f_259_1377" x="-44.1716" y="-25.8313" width="125.283" height="92.8225" filterUnits="userSpaceOnUse" color-interpolation-filters="sRGB">
<feFlood flood-opacity="0" result="BackgroundImageFix"/>
<feBlend mode="normal" in="SourceGraphic" in2="BackgroundImageFix" result="shape"/>
<feGaussianBlur stdDeviation="9.13561" result="effect1_foregroundBlur_259_1377"/>
</filter>
<filter id="filter1_f_259_1377" x="-15.8634" y="-29.1031" width="98.2463" height="78.3664" filterUnits="userSpaceOnUse" color-interpolation-filters="sRGB">
<feFlood flood-opacity="0" result="BackgroundImageFix"/>
<feBlend mode="normal" in="SourceGraphic" in2="BackgroundImageFix" result="shape"/>
<feGaussianBlur stdDeviation="10.3516" result="effect1_foregroundBlur_259_1377"/>
</filter>
<filter id="filter2_f_259_1377" x="19.3465" y="8.62724" width="58.5653" height="47.8454" filterUnits="userSpaceOnUse" color-interpolation-filters="sRGB">
<feFlood flood-opacity="0" result="BackgroundImageFix"/>
<feBlend mode="normal" in="SourceGraphic" in2="BackgroundImageFix" result="shape"/>
<feGaussianBlur stdDeviation="4.92637" result="effect1_foregroundBlur_259_1377"/>
</filter>
<clipPath id="clip0_259_1377">
<rect width="58" height="42" fill="white"/>
</clipPath>
</defs>
</svg>
