<svg width="45" height="34" viewBox="0 0 45 34" fill="none" xmlns="http://www.w3.org/2000/svg">
<g clip-path="url(#clip0_623_2885)">
<g filter="url(#filter0_f_623_2885)">
<path d="M-3.09961 14.8999C-3.09961 3.30196 6.30241 -6.10006 17.9004 -6.10006H33.9004C45.4984 -6.10006 54.9004 3.30196 54.9004 14.8999C54.9004 26.4979 45.4984 35.8999 33.9004 35.8999H17.9004C6.30241 35.8999 -3.09961 26.4979 -3.09961 14.8999Z" fill="#D9D9D9"/>
<path d="M59.74 14.4799C59.74 30.0212 39.8749 42.6199 15.37 42.6199C-9.13487 42.6199 -29 30.0212 -29 14.4799C-29 -1.06138 -9.13487 -13.6601 15.37 -13.6601C39.8749 -13.6601 59.74 -1.06138 59.74 14.4799Z" fill="#F7BCFA"/>
<path d="M58.5802 3.98C58.5802 14.1862 45.8562 22.46 30.1602 22.46C14.4643 22.46 1.74023 14.1862 1.74023 3.98C1.74023 -6.22622 14.4643 -14.5 30.1602 -14.5C45.8562 -14.5 58.5802 -6.22622 58.5802 3.98Z" fill="#FFFC97"/>
<path d="M64.9596 26.4499C64.9596 34.2206 56.2605 40.5199 45.5296 40.5199C34.7987 40.5199 26.0996 34.2206 26.0996 26.4499C26.0996 18.6793 34.7987 12.3799 45.5296 12.3799C56.2605 12.3799 64.9596 18.6793 64.9596 26.4499Z" fill="#C9F5BF"/>
</g>
<path d="M13 19.1845H15.8509C15.9362 19.7887 16.6472 20.1865 17.4577 20.1865C18.3606 20.1865 18.9151 19.8108 18.9151 19.295C18.9151 18.8014 18.5383 18.5877 17.4363 18.3814L16.0784 18.1309C14.1944 17.792 13.1706 16.6721 13.1706 15.007C13.1706 12.8557 14.948 11.5 17.3937 11.5C20.1237 11.5 21.6523 12.7967 21.6665 14.8597H18.9151C18.8938 14.1966 18.2611 13.8061 17.4506 13.8061C16.6614 13.8061 16.1637 14.145 16.1637 14.6755C16.1637 15.1839 16.5832 15.4491 17.5572 15.6259L18.9649 15.8764C20.9556 16.2374 21.8869 17.2173 21.8869 18.9414C21.8869 21.1149 20.1309 22.5 17.4008 22.5C14.6494 22.5 13.0071 21.3064 13 19.1845Z" fill="#130F2A"/>
<path d="M27.2224 22.5C24.08 22.5 22.132 20.5034 22.132 16.9963C22.132 13.4893 24.0871 11.5 27.2224 11.5C29.9311 11.5 31.9787 13.3272 31.9858 15.9648H29.0993C29.0282 14.7565 28.2675 13.9534 27.2224 13.9534C25.9853 13.9534 25.2033 15.0881 25.2033 16.9889C25.2033 18.9119 25.9782 20.0466 27.2295 20.0466C28.2675 20.0466 29.0211 19.2582 29.1135 18.0278H32C31.9858 20.6802 29.988 22.5 27.2224 22.5Z" fill="#130F2A"/>
</g>
<defs>
<filter id="filter0_f_623_2885" x="-38.8527" y="-24.3527" width="113.665" height="76.8254" filterUnits="userSpaceOnUse" color-interpolation-filters="sRGB">
<feFlood flood-opacity="0" result="BackgroundImageFix"/>
<feBlend mode="normal" in="SourceGraphic" in2="BackgroundImageFix" result="shape"/>
<feGaussianBlur stdDeviation="4.92637" result="effect1_foregroundBlur_623_2885"/>
</filter>
<clipPath id="clip0_623_2885">
<path d="M0 17C0 7.8873 7.3873 0.5 16.5 0.5H28.5C37.6127 0.5 45 7.8873 45 17C45 26.1127 37.6127 33.5 28.5 33.5H16.5C7.3873 33.5 0 26.1127 0 17Z" fill="white"/>
</clipPath>
</defs>
</svg>
